<svg width="16.666626" height="16.666626" viewBox="0 0 16.6666 16.6666" fill="none" xmlns="http://www.w3.org/2000/svg" xmlns:xlink="http://www.w3.org/1999/xlink">
	<desc>
			Created with Pixso.
	</desc>
	<defs/>
	<path id="Vector" d="M4.16248 8.33337C4.16248 10.6342 6.03418 12.5059 8.33496 12.5059C10.6359 12.5059 12.5074 10.6342 12.5074 8.33337C12.5074 6.03247 10.6359 4.16089 8.33496 4.16089C6.03418 4.16089 4.16248 6.03247 4.16248 8.33337ZM8.33496 5.82751C9.71667 5.82751 10.8408 6.95166 10.8408 8.33337C10.8408 9.71497 9.71667 10.8391 8.33496 10.8391C6.95337 10.8391 5.82922 9.71497 5.82922 8.33337C5.82922 6.95166 6.95337 5.82751 8.33496 5.82751ZM7.5 14.1666L9.16663 14.1666L9.16663 16.6666L7.5 16.6666L7.5 14.1666ZM7.5 0L9.16663 0L9.16663 2.5L7.5 2.5L7.5 0ZM0 7.5L2.5 7.5L2.5 9.16663L0 9.16663L0 7.5ZM14.1666 7.5L16.6666 7.5L16.6666 9.16663L14.1666 9.16663L14.1666 7.5ZM1.85083 13.6359L3.61755 11.8676L4.79663 13.0458L3.03003 14.8142L1.85083 13.6359ZM11.8683 3.62L13.6367 1.85168L14.8149 3.03003L13.0466 4.79834L11.8683 3.62ZM3.62 4.79919L1.85168 3.03088L3.03088 1.85254L4.79749 3.62085L3.62 4.79919ZM14.8149 13.6367L13.6367 14.8149L11.8683 13.0466L13.0466 11.8683L14.8149 13.6367Z" fill="#F3F2F2" fill-opacity="1.000000" fill-rule="nonzero"/>
</svg>
