<svg width="16.621140" height="14.995003" viewBox="0 0 16.6211 14.995" fill="none" xmlns="http://www.w3.org/2000/svg" xmlns:xlink="http://www.w3.org/1999/xlink">
	<desc>
			Created with Pixso.
	</desc>
	<defs/>
	<path id="Vector" d="M8.31094 1.29833C7.40294 0.463417 6.21445 3.8147e-05 4.98094 0C4.32805 0.000679016 3.68175 0.130463 3.07922 0.381889C2.47668 0.633316 1.92982 1.00141 1.47011 1.465C-0.490723 3.43417 -0.489899 6.51417 1.47177 8.475L7.58177 14.585C7.72343 14.8342 7.99677 14.995 8.31094 14.995C8.43994 14.9937 8.56685 14.9623 8.68147 14.9031C8.7961 14.8439 8.89523 14.7586 8.97093 14.6542L15.1501 8.475C17.1118 6.51334 17.1118 3.43417 15.1484 1.46167C14.6889 0.998932 14.1425 0.631584 13.5406 0.380737C12.9386 0.12989 12.2931 0.000495911 11.6409 0C10.4075 0.000198364 9.21902 0.463562 8.31094 1.29833ZM13.9701 2.64C15.2726 3.94917 15.2734 5.99417 13.9718 7.29667L8.31094 12.9575L2.6501 7.29667C1.34843 5.99417 1.34927 3.94917 2.64844 2.64333C3.28177 2.01334 4.11011 1.66666 4.98094 1.66666C5.85178 1.66666 6.67677 2.01334 7.3051 2.64167L7.72177 3.05833C7.79909 3.13579 7.89093 3.19724 7.99202 3.23916C8.09312 3.28109 8.20149 3.30267 8.31094 3.30267C8.42038 3.30267 8.52875 3.28109 8.62985 3.23916C8.73094 3.19724 8.82278 3.13579 8.9001 3.05833L9.31677 2.64167C10.5768 1.38416 12.7118 1.3875 13.9701 2.64Z" fill="#DC3845" fill-opacity="1.000000" fill-rule="nonzero"/>
</svg>
