<svg width="15.000000" height="15.000000" viewBox="0 0 15 15" fill="none" xmlns="http://www.w3.org/2000/svg" xmlns:xlink="http://www.w3.org/1999/xlink">
	<desc>
			Created with Pixso.
	</desc>
	<defs/>
	<path id="Vector" d="M5.83337 0L0.833374 0C0.612305 0 0.400391 0.0877686 0.244019 0.244019C0.0877686 0.400391 0 0.612305 0 0.833374L0 5.83337C0 6.05432 0.0877686 6.26636 0.244019 6.42261C0.400391 6.57886 0.612305 6.66663 0.833374 6.66663L5.83337 6.66663C6.05432 6.66663 6.26636 6.57886 6.42261 6.42261C6.57886 6.26636 6.66663 6.05432 6.66663 5.83337L6.66663 0.833374C6.66663 0.612305 6.57886 0.400391 6.42261 0.244019C6.26636 0.0877686 6.05432 0 5.83337 0ZM5 5L1.66663 5L1.66663 1.66663L5 1.66663L5 5ZM9.16663 6.66663L14.1666 6.66663C14.3877 6.66663 14.5996 6.57886 14.756 6.42261C14.9122 6.26636 15 6.05432 15 5.83337L15 0.833374C15 0.612305 14.9122 0.400391 14.756 0.244019C14.5996 0.0877686 14.3877 0 14.1666 0L9.16663 0C8.94568 0 8.73364 0.0877686 8.57739 0.244019C8.42114 0.400391 8.33337 0.612305 8.33337 0.833374L8.33337 5.83337C8.33337 6.05432 8.42114 6.26636 8.57739 6.42261C8.73364 6.57886 8.94568 6.66663 9.16663 6.66663ZM10 1.66663L13.3334 1.66663L13.3334 5L10 5L10 1.66663ZM0 14.1666C0 14.3877 0.0877686 14.5996 0.244019 14.756C0.400391 14.9122 0.612305 15 0.833374 15L5.83337 15C6.05432 15 6.26636 14.9122 6.42261 14.756C6.57886 14.5996 6.66663 14.3877 6.66663 14.1666L6.66663 9.16663C6.66663 8.94568 6.57886 8.73364 6.42261 8.57739C6.26636 8.42114 6.05432 8.33337 5.83337 8.33337L0.833374 8.33337C0.612305 8.33337 0.400391 8.42114 0.244019 8.57739C0.0877686 8.73364 0 8.94568 0 9.16663L0 14.1666ZM1.66663 10L5 10L5 13.3334L1.66663 13.3334L1.66663 10ZM8.33337 14.1666C8.33337 14.3877 8.42114 14.5996 8.57739 14.756C8.73364 14.9122 8.94568 15 9.16663 15L14.1666 15C14.3877 15 14.5996 14.9122 14.756 14.756C14.9122 14.5996 15 14.3877 15 14.1666L15 9.16663C15 8.94568 14.9122 8.73364 14.756 8.57739C14.5996 8.42114 14.3877 8.33337 14.1666 8.33337L9.16663 8.33337C8.94568 8.33337 8.73364 8.42114 8.57739 8.57739C8.42114 8.73364 8.33337 8.94568 8.33337 9.16663L8.33337 14.1666ZM10 10L13.3334 10L13.3334 13.3334L10 13.3334L10 10Z" fill="#F3F2F2" fill-opacity="1.000000" fill-rule="nonzero"/>
</svg>
